<?xml version="1.0" encoding="utf-8"?>
<!-- Generator: Adobe Illustrator 22.0.1, SVG Export Plug-In . SVG Version: 6.00 Build 0)  -->
<svg version="1.1" id="artwork" xmlns="http://www.w3.org/2000/svg" xmlns:xlink="http://www.w3.org/1999/xlink" x="0px" y="0px"
	 viewBox="0 0 306.144 322.734" enable-background="new 0 0 306.144 322.734" xml:space="preserve">
<g>
	<rect fill="none" width="306.144" height="322.734"/>
	<g>
		<g>
			<g>
				<g>
					<path fill="#1A171B" d="M149.932,63.446c-2.257,1.706-5.601,4.645-9.625,8.869c-5.872,6.167-11.539,14.898-12.375,19.065
						c-1.682,8.393-2.181,18.286,0.286,28.606c0.622,2.601,2.315,3.888,4.38,3.888h40.966c2.068,0,3.759-1.288,4.383-3.889
						c2.471-10.328,1.971-20.221,0.284-28.604v-0.002c-0.832-4.163-6.498-12.894-12.373-19.064
						c-4.009-4.212-7.353-7.136-9.602-8.854C154.231,61.913,152.076,61.826,149.932,63.446z"/>
				</g>
				<g>
					<path fill="#1A171B" d="M96.106,122.613c-22.133,0-30.421,19.503-30.421,32.908c0,16.797,11.906,32.46,20.372,36.192
						c2.749,1.212,4.258,0.461,3.331-2.709c-1.743-5.961-1.444-12.431,1.336-16.771c4.115-6.425,8.999-7.16,14.853-7.666
						c2.573-0.222,3.55-1.035,3.55-3.594v-12.474c0-3.868,0.538-4.74,2.812-7.014c0,0,7.538-7.539,9.403-9.404
						c1.704-1.704,1-3.002-0.368-3.826C117.272,126.025,105.997,122.613,96.106,122.613z"/>
				</g>
				<g>
					<path fill="#1A171B" d="M185.146,128.255c-1.368,0.825-2.073,2.122-0.368,3.826c1.865,1.865,9.403,9.404,9.403,9.404
						c2.274,2.274,2.811,3.146,2.811,7.014v12.474c0,2.558,0.977,3.371,3.55,3.594c5.855,0.506,10.738,1.241,14.853,7.666
						c2.78,4.34,3.079,10.809,1.336,16.771c-0.927,3.171,0.582,3.921,3.331,2.709c8.465-3.732,20.372-19.395,20.372-36.192
						c0-13.405-8.288-32.908-30.421-32.908C200.122,122.613,188.847,126.025,185.146,128.255z"/>
				</g>
				<g>
					<g>
						<path fill="#1A171B" d="M173.752,151.785c-0.173-0.693-0.592-2.786-0.41-3.342c0.178-0.557,0.614-1.674,0.931-2.604
							c1.646-4.779,0.891-9.786,0.363-10.923c-0.102-0.22-0.324-0.251-0.476-0.274c-2.332-0.351-4.246,1.148-6.57,3.94
							c-0.93,1.116-1.976,1.966-2.239,0.436c-0.176-1.011,0.615-3.085-0.33-2.991c-2.188,0.23-3.612,1.484-4.851,3.111
							c-0.954,1.258-1.026,1.918-2.135,1.951c-2.214,0.1-3.245,0.191-4.952,0.599c-1.712,0.406-3.159,1.045-4.185,1.679
							c-1.284,0.801-2.247,2.005-5.266,2.029c-4.834,0.041-10.967,0.152-13.348,0.606c-2.447,0.465-2.794,2.02-1.495,4.19
							c1.523,2.541,1.975,8.002,5.052,8.78c0.816,1.735,1.372,3.056,2.166,2.979c0.273-0.057,0.551-0.899,0.751-1.676
							c0.426-1.703,2.077-1.779,3.166-1.834c2.75-0.14,4.882,0.016,6.74,1.062c1.272,0.717,1.894,1.992,1.654,2.485
							c-0.433,0.885-1.343-0.324-6.062,0.632c-2.667,0.539-4.3,1.969-7.736,1.969c-5.12,0-7.629-3.467-8.529-6.562
							c-0.454-1.554-0.783-3.001-2.611-1.291c-2.349,2.196-2.523,6.375-0.094,8.927c1.611,1.692,3.865,2.573,6.581,2.824
							c0.831,0.065,2.494,0.106,3.85,0.043c0,0-0.387,1.062,0.197,2c0.586,0.94,2.338,1.669,5.131,0.838
							c3.996-1.19,7.43-2.301,10.18-0.246c0.5,0.373,1.118,1.061,1.118,1.509c0,0.816-2.998,3.157-11.406,5.421
							c-10.339,2.784-12.764,9.706-11.717,13.489c0.094,0.346,0.317,0.683,0.579,0.698c0.287,0.015,1.87-0.913,2.775-1.075
							c1.76-0.314,1.018,0.964,0.794,2.573c-0.798,5.739,7.359,12.978,14.563,17.965c3.989,2.761,6.135,3.703,7.141,3.703
							c1.03,0,3.162-0.762,7.141-3.703c11.229-8.298,18.675-19.919,17.468-26.11c-0.685-3.513-2.514-5.652-1.641-6.217
							c1.012-0.65,3.181,1.035,3.659,0.738c1.127-0.701,1.641-7.203-0.437-14.001C177.29,159.652,175.075,157.072,173.752,151.785z
							 M152.645,149.634c-0.95,0.142-2.127-0.365-1.865-0.711c0.113-0.149,0.408-0.54,0.182-1.011
							c-0.309-0.642-1.299-0.652-1.938-0.247c0.512-1.16,2.166-1.937,3.573-1.937c1.984,0,2.442,1.13,2.322,1.995
							C154.777,148.759,153.875,149.45,152.645,149.634z"/>
					</g>
					<g>
						<path fill="#1A171B" d="M88.598,216.445c-22.006,1.389-37.572-17.146-37.572-35.323c0-6.911,1.004-10.553,2.84-14.393
							c1.566-3.276,3.364-5.497,4.439-5.492c1.057,0.003,1.376,1.547,1.548,2.456c4.262,22.276,19.977,35.206,30.674,35.381
							c3.137,0.052,6.953-0.669,7.293-2.193c0.487-2.183-3.264-6.84-3.264-15.578c0-3.538,1.555-9.951,11.349-10.337
							c8.632-0.342,12.823,7.736,12.823,14.882C118.727,200.681,107.811,215.23,88.598,216.445z"/>
					</g>
					<g>
						<path fill="#1A171B" d="M59.801,148.265c1.756-13.012,9.097-22.679,17.249-27.312c12.996-7.384,25.871-4.587,34.9-2.55
							c1.339,0.303,2.427,0.11,2.845-0.705c0.34-0.672,0.1-1.436-0.959-2.55c-4.246-4.471-14.013-14.187-15.236-15.208
							c-2.973-2.479-7.885-3.95-11.727-3.95c-21.957,0-35.849,16.698-35.849,35.286c0,4.865,1.361,11.153,2.855,14.687
							c1.388,3.279,2.926,6.194,4.145,6.194C59.432,152.158,59.543,150.173,59.801,148.265z"/>
						<path fill="#1A171B" d="M186.002,112.418c-0.616-0.468-0.755-1.395-0.615-2.802c0.93-9.333-0.016-18.513-1.882-22.821
							c-2.399-5.542-8.139-13.63-12.627-18.329c-5.824-6.1-7.918-7.779-10.6-9.813c-0.672-0.509-2.12-1.329-2.12-2.007
							c0-0.75,1.116-1.527,2.466-2.152c2.517-1.168,6.208-2.757,12.948-3.337c8.016-0.689,19.439,1.04,28.065,12.063
							c4.868,6.222,5.549,13.749,5.549,18.842c0,6.061-0.971,11.515-3.852,14.662c-4.268,4.66-13.409,13.758-14.611,14.839
							C188.14,112.087,186.81,113.028,186.002,112.418z"/>
						<path fill="#1A171B" d="M120.143,112.418c0.616-0.468,0.755-1.395,0.615-2.802c-0.93-9.333,0.016-18.513,1.882-22.821
							c2.399-5.542,8.14-13.63,12.627-18.329c5.824-6.1,7.918-7.779,10.6-9.813c0.672-0.509,2.12-1.329,2.12-2.007
							c0-0.75-1.116-1.527-2.466-2.152c-2.517-1.168-6.208-2.757-12.948-3.337c-8.016-0.689-19.439,1.04-28.065,12.063
							c-4.868,6.222-5.549,13.749-5.549,18.842c0,6.061,0.97,11.515,3.852,14.662c4.268,4.66,13.409,13.758,14.611,14.839
							C118.005,112.087,119.336,113.028,120.143,112.418z"/>
					</g>
					<g>
						<path fill="#1A171B" d="M217.548,216.445c22.006,1.389,37.572-17.146,37.572-35.323c0-6.911-1.004-10.553-2.84-14.393
							c-1.566-3.276-3.364-5.497-4.439-5.492c-1.057,0.003-1.376,1.547-1.548,2.456c-4.262,22.276-19.977,35.206-30.674,35.381
							c-3.136,0.052-6.953-0.669-7.293-2.193c-0.487-2.183,3.264-6.84,3.264-15.578c0-3.538-1.555-9.951-11.349-10.337
							c-8.632-0.342-12.823,7.736-12.823,14.882C187.418,200.681,198.335,215.23,217.548,216.445z"/>
						<path fill="#1A171B" d="M246.344,148.265c-1.756-13.012-9.097-22.679-17.249-27.312c-12.995-7.384-25.871-4.587-34.9-2.55
							c-1.339,0.303-2.427,0.11-2.845-0.705c-0.34-0.672-0.1-1.436,0.959-2.55c4.245-4.471,14.013-14.187,15.236-15.208
							c2.973-2.479,7.885-3.95,11.727-3.95c21.957,0,35.849,16.698,35.849,35.286c0,4.865-1.361,11.153-2.855,14.687
							c-1.388,3.279-2.925,6.194-4.145,6.194C246.713,152.158,246.603,150.173,246.344,148.265z"/>
						<path fill="#1A171B" d="M170.224,223.241c4.937-3.72,7.603-6.218,11.726-10.438c1.902-1.946,4.084-2.153,6.369,0.049
							c3.176,3.067,7.084,5.573,12.799,6.045c2.292,0.19,3.516-0.543,5.133,0.245c0.824,0.399,1.609,1.506,1.666,3.401
							c0.229,7.55-3.38,16.295-14.315,18.247c-7.087,1.266-14.209-0.881-17.728-4.181c-2.409-2.255-5.066-4.768-6.61-6.853
							C167.651,227.582,167.725,225.121,170.224,223.241z"/>
						<path fill="#1A171B" d="M135.921,223.241c-4.937-3.72-7.603-6.218-11.726-10.438c-1.901-1.946-4.084-2.153-6.369,0.049
							c-3.176,3.067-7.084,5.573-12.799,6.045c-2.292,0.19-3.515-0.543-5.133,0.245c-0.824,0.399-1.609,1.506-1.666,3.401
							c-0.229,7.55,3.38,16.295,14.315,18.247c7.087,1.266,14.209-0.881,17.728-4.181c2.409-2.255,5.066-4.768,6.61-6.853
							C138.495,227.582,138.421,225.121,135.921,223.241z"/>
					</g>
					<g>
						<path fill="#1A171B" d="M153.073,231.913c2.818,0,5.023-1.718,6.93-1.966c1.613-0.21,2.653,0.29,4.13,1.77
							c2.141,2.145,5.225,5.501,7.274,8.015c1.478,1.813,3.483,4.839,0.73,11.892c-3.379,8.664-15.51,20.086-19.065,20.086
							s-15.686-11.422-19.065-20.086c-2.752-7.053-0.748-10.079,0.73-11.892c2.049-2.514,5.133-5.87,7.274-8.015
							c1.477-1.48,2.517-1.98,4.13-1.77C148.049,230.195,150.255,231.913,153.073,231.913z"/>
					</g>
				</g>
			</g>
		</g>
	</g>
</g>
</svg>
